<svg xmlns="http://www.w3.org/2000/svg" viewBox="0 0 411.4 74.3" enable-background="new 0 0 411.4 74.3"><style type="text/css">.st0{fill:#FFFFFF;}</style><path class="st0" d="M25.9 18.2c4.6 0 8.9 1.7 12.1 4.4l4.5-5.3c-4.5-3.8-10.3-6.1-16.6-6.1-14.3.1-25.9 11.7-25.9 25.9 0 14.3 11.6 25.9 25.9 25.9 6.3 0 12.1-2.3 16.6-6.1l-4.5-5.3c-3.3 2.8-7.5 4.4-12.1 4.4-10.5 0-18.9-8.5-18.9-18.9 0-10.4 8.4-18.9 18.9-18.9zM169 12.8h-13.9c-1.9 0-3.5 1.6-3.5 3.5v41.7c0 1.9 1.6 3.5 3.5 3.5h13.9c13.4 0 24.4-10.9 24.4-24.4 0-13.4-11-24.3-24.4-24.3zm0 41.7h-10.4v-34.8h10.4c9.6 0 17.4 7.8 17.4 17.4 0 9.6-7.8 17.4-17.4 17.4zM212.2 16.2v41.8c0 1.9 1.6 3.5 3.5 3.5h29v-7h-25.5v-13.9h16.2v-7h-16.2v-13.9h25.5v-7h-29c-1.9.1-3.5 1.6-3.5 3.5zM317.6 16.2v41.8c0 1.9 1.6 3.5 3.5 3.5h29v-7h-25.5v-13.9h16.2v-7h-16.2v-13.9h25.5v-7h-29c-2 .1-3.5 1.6-3.5 3.5zM284.4 12.8h-15.1c-1.9 0-3.5 1.6-3.5 3.5v45.2h7v-20.9h11.6c7.7 0 13.9-6.2 13.9-13.9.1-7.7-6.2-13.9-13.9-13.9zm0 20.8h-11.6v-13.9h11.6c3.8 0 7 3.1 7 7s-3.1 7-7 6.9zM404.5 12.8v35.6l-28.7-34.4c-.9-1.1-2.5-1.5-3.9-1s-2.3 1.8-2.3 3.3v45.2h7v-35.6l28.7 34.4c.7.8 1.7 1.2 2.7 1.2.4 0 .8-.1 1.2-.2 1.4-.5 2.3-1.8 2.3-3.3v-45.2h-7zM131.8 25.3c-.3-1.8-2.3-2.7-3.7-3.7l-7.9-5.3-19.2-12.8-4.5-3c-1.1-.7-2.5-.7-3.5 0l-13 8.7-18.7 12.5c-1.6 1.1-3.6 2-3.7 4.1-.1 2.5 0 4.9 0 7.4v12c0 2.1-.4 4.5 1.5 5.9 4.6 3.3 9.5 6.3 14.2 9.5l18 12c1.7 1.1 3.2 2.3 5.3 1 1.8-1.1 3.5-2.3 5.2-3.5l20-13.3c2.4-1.6 4.9-3.2 7.3-4.9 1.5-1 2.7-1.8 2.7-3.9v-20.6c.1-.6.2-1.4 0-2.1zm-37.1 19.4l-11.3-7.5 11.3-7.5 11.3 7.5-11.3 7.5zm-3.1-20.7l-13.8 9.3-11.2-7.5 25-16.7v14.9zm-19.6 13.1l-8 5.3v-10.6l8 5.3zm5.7 3.9l13.8 9.3v14.9l-25-16.7 11.2-7.5zm20.2 9.2l13.8-9.3 11.2 7.5-25 16.7v-14.9zm19.6-13.1l8-5.3v10.7l-8-5.4zm-5.7-3.8l-13.9-9.3v-14.8l25 16.7-11.1 7.4z"/></svg>